<svg id="Layer_1" data-name="Layer 1" xmlns="http://www.w3.org/2000/svg" viewBox="0 0 907 837"><defs><style>.cls-1{fill:#898989;}.cls-2{fill:none;stroke:#898989;stroke-miterlimit:10;stroke-width:9px;}</style></defs><title>logo</title><path class="cls-1" d="M305.33,489.33a13.35,13.35,0,0,1-3.72-9.9V317.23a21.36,21.36,0,0,0-3.87-13q-3.87-5.25-9.13-5.26H260.13v4.33h7.13a13.1,13.1,0,0,1,9.9,3.87,14,14,0,0,1,3.72,10.06v162.2a12.8,12.8,0,0,1-13.62,13.62h-7.13V498h62.22v-4.95h-7.12A13.35,13.35,0,0,1,305.33,489.33Z"/><path class="cls-1" d="M431.61,307.17a13.1,13.1,0,0,1,9.91-3.87H449V299H386.73v4.33h7.12a13.08,13.08,0,0,1,9.9,3.87,13.92,13.92,0,0,1,3.72,10.06v162.2a23,23,0,0,0,3.71,13q3.72,5.56,9,5.57H449v-4.95h-7.43a12.78,12.78,0,0,1-13.62-13.62V317.23A14,14,0,0,1,431.61,307.17Z"/><path class="cls-1" d="M482.64,303.3V299h83a139.26,139.26,0,0,1,41.17,5.73,84,84,0,0,1,31.73,17.49,78.89,78.89,0,0,1,20.42,29.71q7.27,18,7.28,42.4a138.3,138.3,0,0,1-5.88,41,91.77,91.77,0,0,1-17.8,33,82.19,82.19,0,0,1-29.87,21.82q-18,7.9-42.1,7.9H482.64v-4.95h7.13a12.8,12.8,0,0,0,13.62-13.62V317.23a13.92,13.92,0,0,0-3.72-10.06,13.1,13.1,0,0,0-9.9-3.87Zm41.48,187.89h24.76q28.47,0,44.27-5.26a59.19,59.19,0,0,0,23.52-14.24,81,81,0,0,0,15.63-22,108.49,108.49,0,0,0,8.83-26.46,141.6,141.6,0,0,0,2.78-27.4q0-92.53-95-92.55H524.12Z"/><line class="cls-2" x1="300.32" y1="451.98" x2="410.83" y2="451.98"/></svg>