<svg id="Layer_1" data-name="Layer 1" xmlns="http://www.w3.org/2000/svg" viewBox="0 0 907 453"><defs><style>.cls-1{fill:#898989;}.cls-2{fill:none;stroke:#898989;stroke-miterlimit:10;stroke-width:9px;}</style></defs><title>logo</title><path class="cls-1" d="M151.55,400.84q-7.32-7.33-7.33-19.55V61.07q0-15.26-7.65-25.66T118.56,25H62.33v8.56H76.39q12.21,0,19.55,7.64t7.34,19.85V381.29q0,12.22-7.34,19.55t-19.55,7.33H62.33V418H185.17v-9.78H171.1Q158.88,408.17,151.55,400.84Z"/><path class="cls-1" d="M400.87,41.22q7.33-7.63,19.55-7.64H435.1V25H312.26v8.56h14.07c8.13,0,14.66,2.55,19.54,7.64s7.34,11.71,7.34,19.85V381.29q0,14.65,7.33,25.66t17.72,11H435.1v-9.78H420.42q-12.23,0-19.55-7.33t-7.33-19.55V61.07Q393.54,48.86,400.87,41.22Z"/><path class="cls-1" d="M501.62,33.58V25H665.39Q710,25,746.66,36.33t62.65,34.53q26,23.22,40.32,58.66T864,213.23q0,43.41-11.61,81t-35.15,65.08q-23.52,27.49-59,43.08T675.17,418H501.62v-9.78h14.06q12.21,0,19.55-7.33t7.34-19.55V61.07q0-12.21-7.34-19.85t-19.55-7.64ZM583.51,404.5h48.88q56.22,0,87.39-10.38,27.51-9.18,46.45-28.12a160.22,160.22,0,0,0,30.85-43.38,213.26,213.26,0,0,0,17.42-52.24,279.06,279.06,0,0,0,5.5-54.09q0-182.7-187.61-182.71H583.51Z"/><line class="cls-2" x1="141.66" y1="327.09" x2="359.84" y2="327.09"/></svg>